<?xml version="1.0" encoding="utf-8"?>
<!-- Generator: Adobe Illustrator 21.0.0, SVG Export Plug-In . SVG Version: 6.00 Build 0)  -->
<svg version="1.1" xmlns="http://www.w3.org/2000/svg" xmlns:xlink="http://www.w3.org/1999/xlink" x="0px" y="0px"
	 viewBox="0 0 800 600" style="enable-background:new 0 0 800 600;" xml:space="preserve">
<style type="text/css">
	.st0{fill:none;}
	.st1{fill:none;stroke:#231F20;stroke-miterlimit:10;}
	.st2{opacity:0.25;fill:#482B54;}
	.st3{fill:#A6A6A6;}
	.st4{fill:#E4E4E4;}
	.st5{fill:#64C0F2;}
	.st6{fill:#B9F264;}
	.st7{fill:none;stroke:#2B1535;stroke-miterlimit:10;}
	.st8{fill:none;stroke:#2B1535;stroke-width:0.75;stroke-miterlimit:10;}
	.st9{opacity:0.25;fill:#FFFFFF;}
	.st10{fill:none;stroke:#2B1535;stroke-linecap:round;stroke-linejoin:round;stroke-miterlimit:10;}
	.st11{fill:#FF817E;}
	.st12{fill:#7F7F7F;}
	.st13{opacity:0.5;fill:#FFFFFF;}
	.st14{fill:#D4D4D4;stroke:#2B1535;stroke-miterlimit:10;}
	.st15{fill:#D4D4D4;}
	.st16{fill:#F1F0ED;}
	.st17{fill:#684077;}
	.st18{fill:#482B54;}
	.st19{opacity:0.25;}
	.st20{opacity:0.5;}
	.st21{fill:#FFFFFF;}
	.st22{fill:none;stroke:#2B1535;stroke-width:2;stroke-miterlimit:10;}
	.st23{fill:url(#New_Pattern_Swatch_1);stroke:#2B1535;stroke-miterlimit:10;}
	.st24{fill:none;stroke:#2B1535;stroke-width:2;stroke-linejoin:round;stroke-miterlimit:10;}
	.st25{fill:none;stroke:#2B1535;stroke-linejoin:round;stroke-miterlimit:10;}
</style>
<pattern  x="94" y="-96" width="4" height="6.9" patternUnits="userSpaceOnUse" id="New_Pattern_Swatch_1" viewBox="4.5 -9.8 4 6.9" style="overflow:visible;">
	<g>
		<rect x="4.5" y="-9.8" class="st0" width="4" height="6.9"/>
		<polygon class="st1" points="8.5,-5.2 10.5,-4 10.5,-1.7 8.5,-0.6 6.5,-1.7 6.5,-4 		"/>
		<polygon class="st1" points="4.5,-5.2 6.5,-4 6.5,-1.7 4.5,-0.6 2.5,-1.7 2.5,-4 		"/>
		<polygon class="st1" points="10.5,-8.7 12.5,-7.5 12.5,-5.2 10.5,-4 8.5,-5.2 8.5,-7.5 		"/>
		<polygon class="st1" points="6.5,-8.7 8.5,-7.5 8.5,-5.2 6.5,-4 4.5,-5.2 4.5,-7.5 		"/>
		<polygon class="st1" points="2.5,-8.7 4.5,-7.5 4.5,-5.2 2.5,-4 0.5,-5.2 0.5,-7.5 		"/>
		<polygon class="st1" points="8.5,-12.1 10.5,-11 10.5,-8.7 8.5,-7.5 6.5,-8.7 6.5,-11 		"/>
		<polygon class="st1" points="4.5,-12.1 6.5,-11 6.5,-8.7 4.5,-7.5 2.5,-8.7 2.5,-11 		"/>
	</g>
</pattern>
<g id="graffiti_1_">
	<path class="st2" d="M575.3,431.5c1,0.2,1.3,1.1,1,2.6l-18.9,12c-9.3,6.7-14.1,10.7-14.4,12.2c3.5,10.3,5,16.6,4.5,18.7l-0.3,1.5
		c-2.1,2.3-4.1,3.2-6.1,2.7l-4-17l-0.7-0.2c-8.6,8.3-13.4,12.3-14.3,12.1l-0.7-0.2c-1-0.2-1.3-1.1-1-2.6l13.9-13.9l0.3-1.5l-2.8-7
		c-5.4,10.7-16.1,17.7-32.2,20.8l-4.7-0.2l-3.7-0.8c-8.2-2.8-12.2-7.5-11.9-14c-4.6,2.5-11.2,4.5-19.9,6l-5.9-0.4l-1.4-0.3l-6.7-4
		l0.1-0.5l-4.8,1.6l-1.1-0.2c-5.8-10.9-7.1-23.4-4-37.4c-1.4-0.3-5.2,3.7-11.5,12.1l-3.6,0.9l-2.2-0.5l-0.8-1l-1.8-6.9l-1.1-0.2
		c-5.1,7-9.2,10.1-12.1,9.5l-0.5-0.1c-5.8,4.7-13.6,8.1-23.4,10l-4.7-0.2l-3.7-0.8c-9.5-3.2-13.3-8.9-11.5-17.1l0.8-3.5
		c-6,5.7-14.5,9.6-25.4,11.8l-4.7-0.2l-3.7-0.8c-8.2-2.8-12.2-7.5-12-14c-4.6,2.5-11.2,4.5-19.9,6l-5.9-0.4l-1.4-0.3l-6.7-4l0.2-0.8
		c1.3-4.2,3.4-6,6.4-5.3l5.2,3.7l0.7,0.2l-2.4-9.8l-3.8,0l-1.5-0.3c-1-0.2-1.2-1.1-0.9-2.7l3.9-4.2c-2.7-10.4-6.6-20.5-11.4-30.3
		c1-4.3,3.3-6,7.2-5.2l6.5,11.6c12.1,10.2,18.1,16,18.1,17.4l-0.5,2.4l-3.1,3.6l0.8,0.2l8.8,1.1c1.5,0.3,2.7,0.9,3.8,1.7
		c5.8-12.4,17.6-19.6,35.3-21.7l6.4,1.4c8,1.8,11.3,8.4,9.9,19.9l0,0.2c6.6-6.3,16-10.2,28.3-11.7l6.4,1.4c8,1.8,11.3,8.4,9.9,19.9
		L414,415c1-1.6,2-3.2,3-5l5.7-0.3c1.2,2.1,1.8,6,1.8,11.7c1,0.2,6.1-6,15.3-18.6l6.7-0.1l0.3,0.4c0.7-0.1,1.5,0,2.4,0.2l6.5,11.6
		c12.1,10.2,18.1,16,18.1,17.4l-0.5,2.4l-3.1,3.6l0.7,0.2l8.8,1.1c1.5,0.3,2.7,0.9,3.8,1.7c5.8-12.4,17.6-19.6,35.3-21.7l6.4,1.4
		c7.5,1.7,10.9,7.6,10.1,17.8l6.5,14.4c8.3-7.8,19.2-15.1,32.8-21.9L575.3,431.5z M524.8,444.3c1.2-10-2.3-15.8-10.4-17.6
		c-13,1-21,8.4-24,22.2c-1.9,8.7,1.7,14.1,10.8,16.1c13-1.2,20.8-7.6,23.3-19.1L524.8,444.3z M479.3,451.3c-0.2-2.9-2-4.7-5.5-5.5
		l-9.7-0.5l2.9,10.8C471.7,454.9,475.9,453.3,479.3,451.3z M462.2,436.6l3.4-1.8l-5.8-4.6C460.3,433.9,461.1,436,462.2,436.6z
		 M458,455.8l-2.4-9.8l-3.8,0l-1.5-0.3c-0.9-0.2-1.2-1.1-0.9-2.7l3.9-4.1c-2.1-8.1-4.9-15.9-8.3-23.6c-1.8,13.1-1.4,26.5,1.2,40.1
		c1.3-2.8,3.2-3.9,5.7-3.3l5.2,3.7L458,455.8z M403.8,417.7c1.2-10-2.3-15.8-10.4-17.6c-13,1-21,8.4-24,22.2
		c-1.9,8.7,1.7,14.1,10.8,16.1c13-1.2,20.8-7.6,23.3-19.1L403.8,417.7z M359.3,407.9c1.2-10-2.3-15.8-10.4-17.6
		c-13,1-21,8.4-24,22.2c-1.9,8.7,1.7,14.1,10.8,16.1c13-1.2,20.8-7.6,23.3-19.1L359.3,407.9z M313.8,414.8c-0.2-2.9-2.1-4.7-5.6-5.5
		l-9.7-0.5l2.9,10.8C306.2,418.5,310.3,416.8,313.8,414.8z M296.7,400.1l3.4-1.8l-5.8-4.6C294.8,397.4,295.6,399.6,296.7,400.1z"/>
</g>
<g id="spray_2">
	<g id="color">
		<g id="XMLID_5_">
			<g>
				<path class="st3" d="M494.5,503.1c-2.9,0-5.2,5-5.2,11.2c0,6.2,2.3,11.2,5.2,11.2c2.9,0,5.2-5,5.2-11.2
					C499.7,508.1,497.4,503.1,494.5,503.1z"/>
				<path class="st4" d="M496.2,503.1h-1.7c2.9,0,5.2,5,5.2,11.2c0,6.2-2.3,11.2-5.2,11.2h1.7c2.9,0,5.2-5,5.2-11.2
					C501.4,508.1,499.1,503.1,496.2,503.1z"/>
				<path class="st5" d="M504.8,503.1h-8.6c2.9,0,5.2,5,5.2,11.2c0,6.2-2.3,11.2-5.2,11.2h8.6c2.9,0,5.2-5,5.2-11.2
					C510.1,508.1,507.7,503.1,504.8,503.1z"/>
				<path class="st6" d="M522.1,503.1h-17.2c2.9,0,5.2,5,5.2,11.2c0,6.2-2.3,11.2-5.2,11.2h17.2c2.9,0,5.2-5,5.2-11.2
					C527.3,508.1,525,503.1,522.1,503.1z"/>
				<path class="st5" d="M530.7,503.1h-8.6c2.9,0,5.2,5,5.2,11.2c0,6.2-2.3,11.2-5.2,11.2h8.6c0.7,0,1.4-0.3,2-0.9
					c1.9-1.7,3.2-5.7,3.2-10.3c0-4.7-1.3-8.6-3.2-10.3C532.1,503.4,531.4,503.1,530.7,503.1z"/>
				<path class="st5" d="M532.7,503.9c1.9,1.7,3.2,5.7,3.2,10.3c0,4.7-1.3,8.6-3.2,10.3c2.6,0,5.4-2.2,6.6-5.2
					c0.4-1,0.7-2.2,0.7-3.4v-3.4c0-1.2-0.2-2.3-0.7-3.4C538.1,506.1,535.3,503.9,532.7,503.9z"/>
				<path class="st5" d="M542.4,516.9c0.2-0.5,0.3-1.1,0.3-1.7v-1.7c0-0.6-0.1-1.2-0.3-1.7c-0.5-1.5-1.6-2.6-2.9-2.6l-0.1,0.1
					c0.4,1,0.7,2.2,0.7,3.4v3.4c0,1.2-0.2,2.3-0.7,3.4l0.1,0.1C540.8,519.5,541.9,518.4,542.4,516.9z"/>
				<path class="st3" d="M545.1,511.7h-2.7c0.2,0.5,0.3,1.1,0.3,1.7v1.7c0,0.6-0.1,1.2-0.3,1.7h2.7c0.1-0.8,0.1-1.7,0.1-2.6
					C545.2,513.4,545.2,512.5,545.1,511.7z"/>
			</g>
			<g>
				<polyline class="st7" points="530.7,503.1 522.1,503.1 504.8,503.1 496.2,503.1 494.5,503.1 494.4,503.1 				"/>
				<polyline class="st7" points="494.4,525.5 494.5,525.5 496.2,525.5 504.8,525.5 522.1,525.5 530.7,525.5 				"/>
				<path class="st7" d="M532.7,524.6c2.6,0,5.4-2.2,6.6-5.2c0.4-1,0.7-2.2,0.7-3.4v-3.4c0-1.2-0.2-2.3-0.7-3.4
					c-1.2-3.1-4-5.2-6.6-5.2"/>
				<path class="st7" d="M539.5,519.5c1.3,0,2.4-1.1,2.9-2.6c0.2-0.5,0.3-1.1,0.3-1.7v-1.7c0-0.6-0.1-1.2-0.3-1.7
					c-0.5-1.5-1.6-2.6-2.9-2.6"/>
				<path class="st7" d="M494.5,503.1c-2.9,0-5.2,5-5.2,11.2c0,6.2,2.3,11.2,5.2,11.2c2.9,0,5.2-5,5.2-11.2
					C499.7,508.1,497.4,503.1,494.5,503.1z"/>
				<path class="st8" d="M496.2,525.5c2.9,0,5.2-5,5.2-11.2c0-6.2-2.3-11.2-5.2-11.2"/>
				<path class="st8" d="M504.8,525.5c2.9,0,5.2-5,5.2-11.2c0-6.2-2.3-11.2-5.2-11.2"/>
				<path class="st8" d="M522.1,525.5c2.9,0,5.2-5,5.2-11.2c0-6.2-2.3-11.2-5.2-11.2"/>
				<path class="st7" d="M530.7,525.5c0.7,0,1.4-0.3,2-0.9c1.9-1.7,3.2-5.7,3.2-10.3c0-4.7-1.3-8.6-3.2-10.3c-0.6-0.6-1.3-0.9-2-0.9
					"/>
				<path class="st7" d="M542.3,516.9L542.3,516.9h2.8c0.1-0.8,0.1-1.7,0.1-2.6c0-0.9-0.1-1.8-0.1-2.6h-2.7h-0.1"/>
			</g>
		</g>
	</g>
	<g id="shadows">
		<path class="st9" d="M542.6,513.4c0,0-1.6-0.8-2.6-0.4c0-0.5-0.7-3.9-0.7-3.9S542.1,509.1,542.6,513.4z"/>
		<path class="st9" d="M539.7,512c-0.8-0.6-3.1-1.6-4.1-0.9c0,0,0.1-4.4-1.9-6C533.6,505.1,539.7,505.8,539.7,512z"/>
		<path class="st9" d="M532.9,504.1h-8.8c0,0,2.3,2.5,2.2,3.6h8.5C534.8,507.7,533.6,503.8,532.9,504.1z"/>
		<path class="st9" d="M507,504.1h-8.8c0,0,2.3,2.5,2.2,3.6h8.5C509,507.7,507.7,503.8,507,504.1z"/>
	</g>
	<g id="lines">
		<line class="st7" x1="530.7" y1="503.1" x2="494.4" y2="503.1"/>
		<line class="st7" x1="494.4" y1="525.5" x2="530.7" y2="525.5"/>
		<path class="st7" d="M532.7,524.6c3.5,0,7.3-3.9,7.3-8.6v-3.4c0-4.7-3.8-8.6-7.3-8.6"/>
		<path class="st7" d="M539.5,519.5L539.5,519.5c1.7,0,3.2-1.9,3.2-4.3v-1.7c0-2.4-1.4-4.3-3.2-4.3l0,0"/>
		<ellipse class="st7" cx="494.5" cy="514.3" rx="5.2" ry="11.2"/>
		<path class="st8" d="M496.2,525.5c2.9,0,5.2-5,5.2-11.2s-2.3-11.2-5.2-11.2"/>
		<path class="st8" d="M504.8,525.5c2.9,0,5.2-5,5.2-11.2s-2.3-11.2-5.2-11.2"/>
		<path class="st8" d="M522.1,525.5c2.9,0,5.2-5,5.2-11.2s-2.3-11.2-5.2-11.2"/>
		<path class="st10" d="M543.8,525.5"/>
		<path class="st7" d="M530.7,503.1c2.9,0,5.2,5,5.2,11.2s-2.3,11.2-5.2,11.2"/>
		<path class="st7" d="M542.3,516.9l2.8,0c0.1-0.8,0.1-1.7,0.1-2.6c0-0.9-0.1-1.8-0.1-2.6l-2.8,0"/>
		<line class="st10" x1="547.1" y1="525.5" x2="551.2" y2="525.5"/>
		<line class="st10" x1="530.7" y1="525.5" x2="543.8" y2="525.5"/>
	</g>
</g>
<g id="spray_1">
	<g id="color_1_">
		<g id="XMLID_10_">
			<g>
				<rect x="306.6" y="521.6" class="st4" width="22.4" height="3.4"/>
				<rect x="306.6" y="513" class="st5" width="22.4" height="8.6"/>
				<rect x="306.6" y="483.7" class="st11" width="22.4" height="29.3"/>
				<rect x="306.6" y="475" class="st5" width="22.4" height="8.6"/>
				<polygon class="st4" points="329,471.6 329,475 306.6,475 306.6,471.6 307.4,471.6 328.1,471.6 				"/>
				<path class="st5" d="M328.1,471.6h-20.7c0-3.5,2.1-6.6,5.2-7.9c1.1-0.5,2.2-0.7,3.4-0.7h3.4c1.2,0,2.4,0.3,3.4,0.7
					C326,465,328.1,468.1,328.1,471.6z"/>
				<path class="st5" d="M320.4,459.7c1.5,0.7,2.6,2.2,2.6,3.9v0c-1.1-0.5-2.2-0.7-3.4-0.7h-3.4c-1.2,0-2.4,0.3-3.4,0.7v0
					c0-1.8,1.1-3.3,2.6-3.9c0.5-0.2,1.1-0.4,1.7-0.4h1.7C319.3,459.4,319.8,459.5,320.4,459.7z"/>
				<path class="st3" d="M320.4,454.7v5.1c-0.5-0.2-1.1-0.4-1.7-0.4h-1.7c-0.6,0-1.2,0.1-1.7,0.4v-2.7c0,0.7,0.4,1.3,0.9,1.3
					s0.9-0.6,0.9-1.3s-0.4-1.3-0.9-1.3s-0.9,0.6-0.9,1.3v-2.4H320.4z"/>
				<ellipse class="st12" cx="316.1" cy="457.1" rx="0.9" ry="1.3"/>
			</g>
			<g>
				<polygon class="st7" points="329,521.6 329,525.1 306.6,525.1 306.6,521.6 306.6,513 306.6,483.7 306.6,475 306.6,471.6 
					307.4,471.6 328.1,471.6 329,471.6 329,475 329,483.7 329,513 				"/>
				<line class="st8" x1="306.6" y1="521.6" x2="329" y2="521.6"/>
				<line class="st8" x1="306.6" y1="513" x2="329" y2="513"/>
				<line class="st8" x1="306.6" y1="475" x2="329" y2="475"/>
				<line class="st8" x1="306.6" y1="483.7" x2="329" y2="483.7"/>
				<path class="st7" d="M307.4,471.6c0-3.5,2.1-6.6,5.2-7.9c1.1-0.5,2.2-0.7,3.4-0.7h3.4c1.2,0,2.4,0.3,3.4,0.7
					c3,1.3,5.2,4.4,5.2,7.9"/>
				<path class="st7" d="M312.6,463.7c0-1.8,1.1-3.3,2.6-3.9c0.5-0.2,1.1-0.4,1.7-0.4h1.7c0.6,0,1.2,0.1,1.7,0.4
					c1.5,0.7,2.6,2.2,2.6,3.9"/>
				<polyline class="st7" points="320.4,459.8 320.4,459.7 320.4,454.7 315.2,454.7 315.2,457.1 315.2,459.7 315.2,459.8 				"/>
				<ellipse class="st8" cx="316.1" cy="457.1" rx="0.9" ry="1.3"/>
			</g>
		</g>
	</g>
	<g id="shadows_2_">
		<path class="st9" d="M315.2,464.3c-2.2,0.4-5.7,2.2-6.5,6h5.3C314.1,470.3,313,467.3,315.2,464.3z"/>
		<path class="st9" d="M316.1,460.5c-0.6,0.1-1.5,0.6-1.7,1.6h1.4C315.8,462.1,315.5,461.3,316.1,460.5z"/>
		<rect x="306.6" y="471.6" class="st13" width="22.4" height="1.5"/>
		<rect x="306.6" y="521.6" class="st13" width="22.4" height="1.5"/>
		<rect x="308.7" y="475" class="st9" width="5.2" height="8.6"/>
		<rect x="308.7" y="513" class="st9" width="5.2" height="8.6"/>
	</g>
	<g id="lines_1_">
		<rect x="306.6" y="471.6" class="st7" width="22.4" height="53.5"/>
		<line class="st8" x1="306.6" y1="521.6" x2="329" y2="521.6"/>
		<line class="st8" x1="306.6" y1="513" x2="329" y2="513"/>
		<line class="st8" x1="306.6" y1="475" x2="329" y2="475"/>
		<line class="st8" x1="306.6" y1="483.7" x2="329" y2="483.7"/>
		<path class="st7" d="M307.4,471.6L307.4,471.6c0-4.7,3.9-8.6,8.6-8.6h3.4c4.7,0,8.6,3.9,8.6,8.6v0"/>
		<path class="st7" d="M312.6,463.7L312.6,463.7c0-2.4,1.9-4.3,4.3-4.3h1.7c2.4,0,4.3,1.9,4.3,4.3l0,0"/>
		<polyline class="st7" points="320.4,459.8 320.4,454.7 315.2,454.7 315.2,459.8 		"/>
		<ellipse class="st8" cx="316.1" cy="457.1" rx="0.9" ry="1.3"/>
		<line class="st10" x1="306.6" y1="525.1" x2="301.7" y2="525.1"/>
	</g>
</g>
<g id="boombox">
	<g id="top_buttons">
		<polyline class="st14" points="330.2,445.9 330.2,442.9 338.2,442.9 338.2,445.9 		"/>
		<polyline class="st14" points="342.2,445.9 342.2,442.9 350.2,442.9 350.2,445.9 		"/>
		<polyline class="st14" points="490.2,445.9 490.2,443.9 494.2,443.9 494.2,445.9 		"/>
		<polyline class="st14" points="482.2,445.9 482.2,442.9 486.2,442.9 486.2,445.9 		"/>
		<polyline class="st14" points="474.2,445.9 474.2,443.9 478.2,443.9 478.2,445.9 		"/>
		<polyline class="st14" points="466.2,445.9 466.2,442.9 470.2,442.9 470.2,445.9 		"/>
	</g>
	<g id="color_2_">
		<g id="XMLID_4_">
			<g>
				<path class="st15" d="M486.2,529.9h-27.9h-18v-4v-12v-28v-20h64v64H486.2z M501.2,469.9c0-0.6-0.4-1-1-1c-0.5,0-1,0.4-1,1
					c0,0.5,0.5,1,1,1C500.8,470.9,501.2,470.4,501.2,469.9z M501.2,525.9c0-0.5-0.4-1-1-1c-0.5,0-1,0.5-1,1c0,0.6,0.5,1,1,1
					C500.8,526.9,501.2,526.4,501.2,525.9z M500.2,497.9c0-15.5-12.5-28-28-28c-15.5,0-28,12.5-28,28c0,15.5,12.5,28,28,28
					C487.7,525.9,500.2,513.3,500.2,497.9z M445.2,469.9c0-0.6-0.4-1-1-1c-0.5,0-1,0.4-1,1c0,0.5,0.5,1,1,1
					C444.8,470.9,445.2,470.4,445.2,469.9z M445.2,525.9c0-0.5-0.4-1-1-1c-0.5,0-1,0.5-1,1c0,0.6,0.5,1,1,1
					C444.8,526.9,445.2,526.4,445.2,525.9z"/>
				<path class="st15" d="M504.2,445.9v20h-64v-3h35v-7v-7v-3H504.2z M499.2,460.9v-10h-20v10H499.2z"/>
				<circle class="st16" cx="500.2" cy="469.9" r="1"/>
				<circle class="st16" cx="500.2" cy="525.9" r="1"/>
				<polygon class="st17" points="499.2,450.9 499.2,460.9 494.2,458.4 494.2,453.4 				"/>
				<polygon class="st17" points="499.2,450.9 494.2,453.4 484.2,453.4 479.2,450.9 				"/>
				<polygon class="st17" points="499.2,460.9 479.2,460.9 484.2,458.4 494.2,458.4 				"/>
				<rect x="484.2" y="453.4" class="st18" width="10" height="5"/>
				<path class="st16" d="M472.2,469.9c15.5,0,28,12.5,28,28c0,15.5-12.5,28-28,28c-15.5,0-28-12.5-28-28
					C444.2,482.4,456.8,469.9,472.2,469.9z M497.2,497.9c0-13.8-11.2-25-25-25s-25,11.2-25,25s11.2,25,25,25
					S497.2,511.7,497.2,497.9z"/>
				<path class="st17" d="M472.2,472.9c13.8,0,25,11.2,25,25s-11.2,25-25,25s-25-11.2-25-25S458.4,472.9,472.2,472.9z M478.2,497.9
					c0-3.3-2.7-6-6-6s-6,2.7-6,6s2.7,6,6,6S478.2,501.2,478.2,497.9z"/>
				<polygon class="st18" points="486.2,529.9 482.2,533.8 462.2,533.8 458.2,529.9 				"/>
				<polygon class="st17" points="484.2,453.4 484.2,458.4 479.2,460.9 479.2,450.9 				"/>
				<circle class="st16" cx="472.2" cy="497.9" r="6"/>
				<polygon class="st16" points="475.2,455.9 475.2,462.9 440.2,462.9 438.2,462.9 438.2,460.9 442.2,460.9 442.2,458.9 
					472.2,458.9 472.2,455.9 				"/>
				<polygon class="st16" points="475.2,448.9 475.2,455.9 472.2,455.9 472.2,452.9 442.2,452.9 442.2,450.9 442.2,448.9 				"/>
				<path class="st15" d="M475.2,445.9v3h-33h-86h-7v7v7h7h82h2v3h-12h-44h-64v-20h52h4h72h4H475.2z M345.2,460.9v-10h-20v10H345.2z
					"/>
				<rect x="442.2" y="455.9" class="st15" width="30" height="3"/>
				<rect x="442.2" y="452.9" class="st15" width="30" height="3"/>
				<rect x="448.2" y="435.9" class="st18" width="4" height="10"/>
				<polygon class="st17" points="452.2,429.9 452.2,435.9 448.2,435.9 376.2,435.9 372.2,435.9 372.2,429.9 				"/>
				<circle class="st16" cx="444.2" cy="469.9" r="1"/>
				<circle class="st16" cx="444.2" cy="525.9" r="1"/>
				<polygon class="st11" points="442.2,458.9 442.2,460.9 438.2,460.9 438.2,458.9 438.2,455.9 438.2,452.9 438.2,450.9 
					442.2,450.9 442.2,452.9 442.2,455.9 				"/>
				<path class="st16" d="M442.2,448.9v2h-4v2h-75v3v3h75v2v2h-82v-3c2.2,0,4-1.8,4-4c0-2.2-1.8-4-4-4v-3H442.2z"/>
				<polygon class="st15" points="440.2,525.9 440.2,529.9 384.2,529.9 384.2,525.9 390.2,525.9 400.2,525.9 410.2,525.9 
					420.2,525.9 430.2,525.9 				"/>
				<polygon class="st16" points="440.2,513.9 440.2,525.9 430.2,525.9 430.2,523.9 434.2,523.9 434.2,521.9 434.2,515.9 
					434.2,513.9 				"/>
				<path class="st15" d="M440.2,485.9v28h-6h-10h-10h-10h-10h-10v-28h0.1h7.9h47.9H440.2z M428.2,509.9v-20H400h-3.8v20h25.2H428.2
					z"/>
				<polygon class="st15" points="440.2,465.9 440.2,485.9 440.1,485.9 392.2,485.9 392.2,482.9 400.2,482.9 408.2,482.9 
					416.2,482.9 424.2,482.9 432.2,482.9 432.2,478.9 424.2,478.9 416.2,478.9 408.2,478.9 400.2,478.9 396.2,478.9 396.2,476.9 
					428.2,476.9 428.2,468.9 428.2,465.9 				"/>
				<rect x="363.2" y="455.9" class="st15" width="75" height="3"/>
				<rect x="363.2" y="452.9" class="st15" width="75" height="3"/>
				<rect x="430.2" y="521.9" class="st18" width="4" height="2"/>
				<rect x="430.2" y="515.9" class="st18" width="4" height="6"/>
				<polygon class="st16" points="434.2,513.9 434.2,515.9 430.2,515.9 430.2,521.9 430.2,523.9 430.2,525.9 420.2,525.9 
					420.2,523.9 424.2,523.9 424.2,517.9 424.2,515.9 424.2,513.9 				"/>
				<rect x="424.2" y="478.9" class="st16" width="8" height="4"/>
				<polygon class="st16" points="428.2,489.9 428.2,509.9 421.5,509.9 421.5,506.9 422.2,503.3 424.5,492.9 400,492.9 400,489.9 
									"/>
				<rect x="396.2" y="468.9" class="st16" width="32" height="8"/>
				<polygon class="st15" points="428.2,465.9 428.2,468.9 396.2,468.9 396.2,476.9 396.2,478.9 392.2,478.9 392.2,482.9 
					392.2,485.9 384.4,485.9 384.2,485.9 384.2,465.9 				"/>
				<polygon class="st15" points="424.5,492.9 422.2,503.3 420.2,502.9 420.2,496.9 404.2,496.9 404.2,502.9 402.2,503.3 400,492.9 
									"/>
				<rect x="420.2" y="517.9" class="st18" width="4" height="6"/>
				<rect x="420.2" y="515.9" class="st18" width="4" height="2"/>
				<polygon class="st16" points="424.2,513.9 424.2,515.9 420.2,515.9 420.2,517.9 420.2,523.9 420.2,525.9 410.2,525.9 
					410.2,523.9 414.2,523.9 414.2,521.9 414.2,515.9 414.2,513.9 				"/>
				<rect x="416.2" y="478.9" class="st16" width="8" height="4"/>
				<polygon class="st15" points="422.2,503.3 421.5,506.9 403,506.9 402.2,503.3 404.2,502.9 420.2,502.9 				"/>
				<polygon class="st16" points="421.5,506.9 421.5,509.9 396.2,509.9 396.2,489.9 400,489.9 400,492.9 402.2,503.3 403,506.9 				
					"/>
				<path class="st16" d="M420.2,496.9v6h-16v-6H420.2z M418.2,499.9c0-0.6-0.4-1-1-1c-0.5,0-1,0.4-1,1c0,0.5,0.5,1,1,1
					C417.8,500.9,418.2,500.4,418.2,499.9z M414.2,500.9v-2h-4v2H414.2z M408.2,499.9c0-0.6-0.4-1-1-1c-0.5,0-1,0.4-1,1
					c0,0.5,0.5,1,1,1C407.8,500.9,408.2,500.4,408.2,499.9z"/>
				<circle class="st15" cx="417.2" cy="499.9" r="1"/>
				<rect x="408.2" y="478.9" class="st16" width="8" height="4"/>
				<rect x="410.2" y="521.9" class="st18" width="4" height="2"/>
				<rect x="410.2" y="515.9" class="st18" width="4" height="6"/>
				<polygon class="st16" points="414.2,513.9 414.2,515.9 410.2,515.9 410.2,521.9 410.2,523.9 410.2,525.9 400.2,525.9 
					400.2,523.9 404.2,523.9 404.2,517.9 404.2,515.9 404.2,513.9 				"/>
				<rect x="410.2" y="498.9" class="st15" width="4" height="2"/>
				<rect x="400.2" y="478.9" class="st16" width="8" height="4"/>
				<circle class="st15" cx="407.2" cy="499.9" r="1"/>
				<rect x="400.2" y="517.9" class="st18" width="4" height="6"/>
				<rect x="400.2" y="515.9" class="st18" width="4" height="2"/>
				<polygon class="st16" points="404.2,513.9 404.2,515.9 400.2,515.9 400.2,517.9 400.2,523.9 400.2,525.9 390.2,525.9 
					390.2,523.9 394.2,523.9 394.2,517.9 394.2,515.9 394.2,513.9 				"/>
				<polygon class="st16" points="400.2,478.9 400.2,482.9 392.2,482.9 392.2,478.9 396.2,478.9 				"/>
				<rect x="390.2" y="517.9" class="st18" width="4" height="6"/>
				<rect x="390.2" y="515.9" class="st18" width="4" height="2"/>
				<polygon class="st16" points="394.2,513.9 394.2,515.9 390.2,515.9 390.2,517.9 390.2,523.9 390.2,525.9 384.2,525.9 
					384.2,513.9 				"/>
				<path class="st15" d="M366.2,529.9h-27.9h-18v-64h64v20v28v12v4H366.2z M381.2,469.9c0-0.6-0.4-1-1-1c-0.5,0-1,0.4-1,1
					c0,0.5,0.5,1,1,1C380.8,470.9,381.2,470.4,381.2,469.9z M381.2,525.9c0-0.5-0.4-1-1-1c-0.5,0-1,0.5-1,1c0,0.6,0.5,1,1,1
					C380.8,526.9,381.2,526.4,381.2,525.9z M380.2,497.9c0-15.5-12.5-28-28-28c-15.5,0-28,12.5-28,28c0,15.5,12.5,28,28,28
					C367.7,525.9,380.2,513.3,380.2,497.9z M325.2,469.9c0-0.6-0.4-1-1-1c-0.5,0-1,0.4-1,1c0,0.5,0.5,1,1,1
					C324.8,470.9,325.2,470.4,325.2,469.9z M325.2,525.9c0-0.5-0.4-1-1-1c-0.5,0-1,0.5-1,1c0,0.6,0.5,1,1,1
					C324.8,526.9,325.2,526.4,325.2,525.9z"/>
				<circle class="st16" cx="380.2" cy="469.9" r="1"/>
				<circle class="st16" cx="380.2" cy="525.9" r="1"/>
				<rect x="372.2" y="435.9" class="st18" width="4" height="10"/>
				<path class="st16" d="M352.2,469.9c15.5,0,28,12.5,28,28c0,15.5-12.5,28-28,28c-15.5,0-28-12.5-28-28
					C324.2,482.4,336.8,469.9,352.2,469.9z M377.2,497.9c0-13.8-11.2-25-25-25s-25,11.2-25,25s11.2,25,25,25
					S377.2,511.7,377.2,497.9z"/>
				<path class="st17" d="M352.2,472.9c13.8,0,25,11.2,25,25s-11.2,25-25,25s-25-11.2-25-25S338.4,472.9,352.2,472.9z M358.2,497.9
					c0-3.3-2.7-6-6-6s-6,2.7-6,6s2.7,6,6,6S358.2,501.2,358.2,497.9z"/>
				<polygon class="st18" points="366.2,529.9 362.2,533.8 342.2,533.8 338.2,529.9 				"/>
				<circle class="st15" cx="356.2" cy="455.9" r="4"/>
				<circle class="st16" cx="352.2" cy="497.9" r="6"/>
				<path class="st16" d="M356.2,459.9v3h-7v-7h3C352.2,458.1,354,459.9,356.2,459.9z"/>
				<path class="st16" d="M356.2,448.9v3c-2.2,0-4,1.8-4,4h-3v-7H356.2z"/>
				<polygon class="st17" points="345.2,450.9 345.2,460.9 340.2,458.4 340.2,453.4 				"/>
				<polygon class="st17" points="345.2,450.9 340.2,453.4 330.2,453.4 325.2,450.9 				"/>
				<polygon class="st17" points="345.2,460.9 325.2,460.9 330.2,458.4 340.2,458.4 				"/>
				<rect x="330.2" y="453.4" class="st18" width="10" height="5"/>
				<polygon class="st17" points="330.2,453.4 330.2,458.4 325.2,460.9 325.2,450.9 				"/>
				<circle class="st16" cx="324.2" cy="469.9" r="1"/>
				<circle class="st16" cx="324.2" cy="525.9" r="1"/>
			</g>
			<g>
			</g>
		</g>
	</g>
	<g id="shadows_1_">
		<rect x="372.2" y="429.9" class="st9" width="80" height="3"/>
		<path class="st19" d="M381.2,499.9c0,15.5-12.5,28-28,28c-8,0-15.2-3.3-20.3-8.7c5,4.8,11.8,7.7,19.3,7.7c15.5,0,28-12.5,28-28
			c0-7.5-2.9-14.3-7.7-19.3C377.9,484.7,381.2,491.9,381.2,499.9z"/>
		<path class="st19" d="M501.2,499.9c0,15.5-12.5,28-28,28c-8,0-15.2-3.3-20.3-8.7c5,4.8,11.8,7.7,19.3,7.7c15.5,0,28-12.5,28-28
			c0-7.5-2.9-14.3-7.7-19.3C497.9,484.7,501.2,491.9,501.2,499.9z"/>
		<rect x="438.2" y="450.9" class="st9" width="4" height="2"/>
		<rect x="438.2" y="458.9" class="st19" width="4" height="2"/>
		<rect x="390.2" y="515.9" class="st9" width="4" height="2"/>
		<rect x="400.2" y="515.9" class="st9" width="4" height="2"/>
		<rect x="420.2" y="515.9" class="st9" width="4" height="2"/>
		<rect x="410.2" y="521.9" class="st9" width="4" height="2"/>
		<rect x="430.2" y="521.9" class="st9" width="4" height="2"/>
		<g id="XMLID_1_" class="st20">
			<g>
				<path class="st21" d="M359.5,453.6c-0.7-0.5-1.5-0.7-2.3-0.7c-2.2,0-4,1.8-4,4c0,0.9,0.3,1.6,0.7,2.3c-1-0.7-1.7-1.9-1.7-3.3
					c0-2.2,1.8-4,4-4C357.6,451.9,358.8,452.6,359.5,453.6z"/>
			</g>
			<g>
			</g>
		</g>
		<rect x="392.2" y="480.9" class="st19" width="40" height="2"/>
	</g>
	<g id="lienart">
		<circle class="st22" cx="352.2" cy="497.9" r="28"/>
		<circle class="st23" cx="352.2" cy="497.9" r="25"/>
		<circle class="st7" cx="352.2" cy="497.9" r="6"/>
		<line class="st22" x1="376.2" y1="445.9" x2="376.2" y2="435.9"/>
		<circle class="st7" cx="324.2" cy="525.9" r="1"/>
		<circle class="st7" cx="324.2" cy="469.9" r="1"/>
		<circle class="st7" cx="380.2" cy="525.9" r="1"/>
		<circle class="st7" cx="380.2" cy="469.9" r="1"/>
		<line class="st7" x1="400.2" y1="478.9" x2="400.2" y2="482.9"/>
		<line class="st7" x1="408.2" y1="478.9" x2="408.2" y2="482.9"/>
		<circle class="st22" cx="472.2" cy="497.9" r="28"/>
		<circle class="st23" cx="472.2" cy="497.9" r="25"/>
		<circle class="st7" cx="472.2" cy="497.9" r="6"/>
		<polyline class="st24" points="504.2,465.9 440.2,465.9 440.2,529.9 504.2,529.9 504.2,445.9 320.2,445.9 320.2,529.9 
			384.2,529.9 384.2,465.9 320.2,465.9 		"/>
		<line class="st22" x1="440.2" y1="529.9" x2="384.2" y2="529.9"/>
		<line class="st22" x1="440.2" y1="465.9" x2="384.2" y2="465.9"/>
		<polyline class="st22" points="452.2,445.9 452.2,435.9 372.2,435.9 372.2,445.9 		"/>
		<line class="st22" x1="448.2" y1="445.9" x2="448.2" y2="435.9"/>
		<polyline class="st24" points="452.2,435.9 452.2,429.9 372.2,429.9 372.2,435.9 		"/>
		<circle class="st7" cx="500.2" cy="525.9" r="1"/>
		<circle class="st7" cx="500.2" cy="469.9" r="1"/>
		<circle class="st7" cx="444.2" cy="525.9" r="1"/>
		<circle class="st7" cx="444.2" cy="469.9" r="1"/>
		<line class="st7" x1="440.2" y1="513.9" x2="384.2" y2="513.9"/>
		<line class="st7" x1="440.2" y1="525.9" x2="384.2" y2="525.9"/>
		<rect x="396.2" y="489.9" class="st25" width="32" height="20"/>
		<line class="st7" x1="440.1" y1="485.9" x2="384.4" y2="485.9"/>
		<rect x="392.2" y="478.9" class="st25" width="40" height="4"/>
		<line class="st7" x1="424.2" y1="478.9" x2="424.2" y2="482.9"/>
		<line class="st7" x1="416.2" y1="478.9" x2="416.2" y2="482.9"/>
		<rect x="396.2" y="468.9" class="st25" width="32" height="8"/>
		<polygon class="st10" points="424.5,492.9 421.5,506.9 403,506.9 400,492.9 		"/>
		<rect x="390.2" y="515.9" class="st25" width="4" height="8"/>
		<rect x="400.2" y="515.9" class="st25" width="4" height="8"/>
		<rect x="410.2" y="515.9" class="st25" width="4" height="8"/>
		<rect x="420.2" y="515.9" class="st25" width="4" height="8"/>
		<rect x="430.2" y="515.9" class="st25" width="4" height="8"/>
		<rect x="404.2" y="496.9" class="st25" width="16" height="6"/>
		<circle class="st7" cx="407.2" cy="499.9" r="1"/>
		<circle class="st7" cx="417.2" cy="499.9" r="1"/>
		<rect x="410.2" y="498.9" class="st7" width="4" height="2"/>
		<rect x="325.2" y="450.9" class="st25" width="20" height="10"/>
		<rect x="330.2" y="453.4" class="st7" width="10" height="5"/>
		<line class="st7" x1="330.2" y1="458.4" x2="325.2" y2="460.9"/>
		<line class="st7" x1="330.2" y1="453.4" x2="325.2" y2="450.9"/>
		<line class="st7" x1="340.2" y1="453.4" x2="345.2" y2="450.9"/>
		<line class="st7" x1="340.2" y1="458.4" x2="345.2" y2="460.9"/>
		<rect x="479.2" y="450.9" class="st25" width="20" height="10"/>
		<rect x="484.2" y="453.4" class="st7" width="10" height="5"/>
		<line class="st7" x1="484.2" y1="458.4" x2="479.2" y2="460.9"/>
		<line class="st7" x1="484.2" y1="453.4" x2="479.2" y2="450.9"/>
		<line class="st7" x1="494.2" y1="453.4" x2="499.2" y2="450.9"/>
		<line class="st7" x1="494.2" y1="458.4" x2="499.2" y2="460.9"/>
		<rect x="349.2" y="448.9" class="st25" width="126" height="14"/>
		<polyline class="st25" points="442.2,458.9 472.2,458.9 472.2,455.9 472.2,452.9 442.2,452.9 		"/>
		<polyline class="st25" points="438.2,452.9 363.2,452.9 363.2,455.9 363.2,458.9 438.2,458.9 		"/>
		<circle class="st7" cx="356.2" cy="455.9" r="4"/>
		<line class="st7" x1="357.3" y1="454.8" x2="359" y2="453.1"/>
		<polyline class="st7" points="338.2,529.9 342.2,533.8 362.2,533.8 366.2,529.8 		"/>
		<polyline class="st7" points="458.2,529.9 462.2,533.8 482.2,533.8 486.2,529.8 		"/>
		<line class="st10" x1="514.2" y1="533.8" x2="310.2" y2="533.8"/>
		<line class="st10" x1="524.2" y1="533.8" x2="520.2" y2="533.8"/>
		<line class="st10" x1="518.2" y1="533.8" x2="516.2" y2="533.8"/>
		<line class="st10" x1="308.2" y1="533.8" x2="300.2" y2="533.8"/>
		<path class="st22" d="M504.2,529.9"/>
		<line class="st10" x1="390.2" y1="517.9" x2="394.2" y2="517.9"/>
		<line class="st10" x1="400.2" y1="517.9" x2="404.2" y2="517.9"/>
		<line class="st10" x1="410.2" y1="521.9" x2="414.2" y2="521.9"/>
		<line class="st10" x1="420.2" y1="517.9" x2="424.2" y2="517.9"/>
		<line class="st10" x1="430.2" y1="521.9" x2="434.2" y2="521.9"/>
		<line class="st7" x1="472.2" y1="455.9" x2="442.2" y2="455.9"/>
		<line class="st7" x1="438.2" y1="455.9" x2="363.2" y2="455.9"/>
		<rect x="438.2" y="450.9" class="st25" width="4" height="10"/>
		<line class="st7" x1="402.2" y1="472.9" x2="406.2" y2="472.9"/>
		<line class="st7" x1="410.2" y1="472.9" x2="414.2" y2="472.9"/>
		<line class="st7" x1="418.2" y1="472.9" x2="422.2" y2="472.9"/>
	</g>
</g>
</svg>
