<?xml version="1.0" encoding="utf-8"?>
<!-- Generator: Adobe Illustrator 21.0.0, SVG Export Plug-In . SVG Version: 6.00 Build 0)  -->
<svg version="1.1" id="cup_of_coffee_1_" xmlns="http://www.w3.org/2000/svg" xmlns:xlink="http://www.w3.org/1999/xlink" x="0px"
	 y="0px" viewBox="0 0 800 600" style="enable-background:new 0 0 800 600;" xml:space="preserve">
<style type="text/css">
	.st0{fill:#FFE095;}
	.st1{fill:#3C3C3C;}
	.st2{fill:#E3C47F;}
	.st3{fill:none;stroke:#3C3C3C;stroke-width:2;stroke-miterlimit:10;}
	.st4{fill:none;stroke:#3C3C3C;stroke-linecap:round;stroke-linejoin:round;stroke-miterlimit:10;}
	.st5{fill:none;stroke:#3C3C3C;stroke-linecap:round;stroke-miterlimit:10;}
	.st6{opacity:7.000000e-02;}
	.st7{opacity:0.25;fill:#FFFFFF;}
	.st8{fill:#64C0F2;}
	.st9{fill:none;stroke:#3C3C3C;stroke-miterlimit:10;}
	.st10{fill:none;stroke:#3C3C3C;stroke-linejoin:round;stroke-miterlimit:10;}
	.st11{opacity:0.1;}
	.st12{opacity:0.25;fill:url(#SVGID_1_);}
	.st13{fill:#F1F0ED;}
	.st14{opacity:0.75;fill:#FFFFFF;}
	.st15{fill:#FFFFFF;}
	.st16{fill:#75684C;}
	.st17{fill:#564B35;}
</style>
<g id="package_1_">
	<g id="color">
		<g id="XMLID_24_">
			<g>
				<path class="st0" d="M466.5,467.2h4l4.9,77c0.1,1.7-1.3,3.1-3,3.1h-54.9l5-80.1h4h4h4h4h4h4h4h4h4h4H466.5z M459,501.4
					c3.5-3.5,1.9-10.8-3.5-16.3c-5.5-5.5-12.8-7.1-16.3-3.5L459,501.4z M456.2,504.3l-19.8-19.8c-3.5,3.5-1.9,10.8,3.5,16.3
					C445.4,506.2,452.7,507.8,456.2,504.3z"/>
				<path class="st1" d="M455.5,485.2c5.5,5.5,7,12.8,3.5,16.3l-19.8-19.8C442.8,478.1,450,479.7,455.5,485.2z"/>
				<path class="st1" d="M436.4,484.5l19.8,19.8c-3.5,3.5-10.8,1.9-16.3-3.5C434.5,495.3,432.9,488,436.4,484.5z"/>
				<polygon class="st2" points="422.5,467.2 417.5,547.3 414.6,546.4 421,467.5 				"/>
				<polygon class="st0" points="421,467.5 414.6,546.4 411.9,546.4 419.5,467.7 				"/>
			</g>
			<g>
				<line class="st3" x1="462.2" y1="516.2" x2="432.2" y2="516.2"/>
				<line class="st3" x1="458.2" y1="520.2" x2="436.2" y2="520.2"/>
				<line class="st3" x1="460.2" y1="524.2" x2="434.2" y2="524.2"/>
				<line class="st3" x1="457.2" y1="538.2" x2="437.2" y2="538.2"/>
				<path class="st4" d="M417.5,547.3l5-80.1h4h4h4h4h4h4h4h4h4h4h4h4l4.9,77c0.1,1.7-1.3,3.1-3,3.1H417.5l-2.9-0.9h-2.7l7.7-78.7
					l1.5-0.3l1.5-0.3"/>
				<line class="st5" x1="426.5" y1="467.2" x2="426.5" y2="470.7"/>
				<line class="st5" x1="430.5" y1="467.2" x2="430.5" y2="470.7"/>
				<line class="st5" x1="434.5" y1="467.2" x2="434.5" y2="470.7"/>
				<line class="st5" x1="438.5" y1="467.2" x2="438.5" y2="470.7"/>
				<line class="st5" x1="442.5" y1="467.2" x2="442.5" y2="470.7"/>
				<line class="st5" x1="446.5" y1="467.2" x2="446.5" y2="470.7"/>
				<line class="st5" x1="450.5" y1="467.2" x2="450.5" y2="470.7"/>
				<line class="st5" x1="454.5" y1="467.2" x2="454.5" y2="470.7"/>
				<line class="st5" x1="458.5" y1="467.2" x2="458.5" y2="470.7"/>
				<line class="st5" x1="462.5" y1="467.2" x2="462.5" y2="470.7"/>
				<line class="st5" x1="466.5" y1="467.2" x2="466.5" y2="470.7"/>
				<line class="st4" x1="414.6" y1="546.4" x2="421" y2="467.5"/>
			</g>
		</g>
	</g>
	<g id="shadows">
		<path class="st6" d="M418.4,532.4c0.5,7,0.5,12.9,4.7,12.9c2.8,0,6.9-3.4,7.7-7.7c0,0,2.1,7.7,8.6,7.7c2.5,0,4.7-1.4,5.6-4.4
			c0.7,5.3,12.1,4.3,18.5,4.3c14.4,0,9.4-40.5,9-47.8l3,46.8c0,0-0.1,3.1-2.5,3.1s-55.4,0-55.4,0L418.4,532.4z"/>
		<path class="st7" d="M420.7,495.3c6.2,0,6.9-15.5,10.6-18.4c3.2-2.5,20.2-3.2,29.6-3.1c3.3,0,4,2.8,10.2,3l-0.6-9.6h-48
			L420.7,495.3z"/>
	</g>
	<g id="lines">
		<line class="st3" x1="462.2" y1="516.2" x2="432.2" y2="516.2"/>
		<line class="st3" x1="458.2" y1="520.2" x2="436.2" y2="520.2"/>
		<line class="st3" x1="460.2" y1="524.2" x2="434.2" y2="524.2"/>
		<line class="st3" x1="457.2" y1="538.2" x2="437.2" y2="538.2"/>
		<path class="st4" d="M417.5,547.3l5-80.1h48l4.9,77c0.1,1.7-1.3,3.1-3,3.1H417.5l-2.9-0.9h-2.7l7.7-78.7l2.9-0.5"/>
		<line class="st5" x1="426.5" y1="467.2" x2="426.5" y2="470.7"/>
		<line class="st5" x1="430.5" y1="467.2" x2="430.5" y2="470.7"/>
		<line class="st5" x1="434.5" y1="467.2" x2="434.5" y2="470.7"/>
		<line class="st5" x1="438.5" y1="467.2" x2="438.5" y2="470.7"/>
		<line class="st5" x1="442.5" y1="467.2" x2="442.5" y2="470.7"/>
		<line class="st5" x1="446.5" y1="467.2" x2="446.5" y2="470.7"/>
		<line class="st5" x1="450.5" y1="467.2" x2="450.5" y2="470.7"/>
		<line class="st5" x1="454.5" y1="467.2" x2="454.5" y2="470.7"/>
		<line class="st5" x1="458.5" y1="467.2" x2="458.5" y2="470.7"/>
		<line class="st5" x1="462.5" y1="467.2" x2="462.5" y2="470.7"/>
		<line class="st5" x1="466.5" y1="467.2" x2="466.5" y2="470.7"/>
		<line class="st4" x1="414.6" y1="546.4" x2="421" y2="467.5"/>
		<line class="st5" x1="472.4" y1="547.3" x2="482.1" y2="547.3"/>
		<line class="st5" x1="484.1" y1="547.3" x2="486.1" y2="547.3"/>
	</g>
</g>
<g id="kettle">
	<g id="color_1_">
		<g id="XMLID_3_">
			<g>
				<path class="st8" d="M395.6,479.3v15.3c0,4-4,7.1-7.7,7.4h-0.1l-0.2-3c2.3-0.3,4.9-2.2,4.9-4.5v-15.3c0-2.4-3-4.5-5.5-4.5h-1.2
					l-0.2-3l0.1,0h1.3C391.1,471.8,395.6,475,395.6,479.3z"/>
				<path class="st8" d="M385.9,474.8l1.7,24.3l0.2,3l2.9,40c0.2,2.9-2.1,5.4-5,5.4h-37c-2.9,0-5.2-2.5-5-5.4l4.9-71.3l7.5-12.3
					h28.6l1,13.4L385.9,474.8z"/>
				<path class="st8" d="M384.8,453.4v5h-28.6h-6.4v-5c0-0.6,0.5-1,1-1h3.5h26h3.5C384.3,452.4,384.8,452.8,384.8,453.4z"/>
				<path class="st8" d="M380.2,452.4h-26c2.1-2.9,7.1-5,13-5C373.1,447.4,378.2,449.5,380.2,452.4z"/>
				<path class="st8" d="M367.3,439.4c2.2,0,4,1.8,4,4c0,2.2-1.8,4-4,4c-2.2,0-4-1.8-4-4C363.3,441.2,365.1,439.4,367.3,439.4z"/>
				<polygon class="st8" points="356.1,458.4 348.6,470.7 341.2,458.4 349.8,458.4 				"/>
			</g>
			<g>
				<path class="st9" d="M356.1,458.4h28.6l1,13.4l0.2,3l1.7,24.3l0.2,3l2.9,40c0.2,2.9-2.1,5.4-5,5.4h-37c-2.9,0-5.2-2.5-5-5.4
					l4.9-71.3"/>
				<path class="st9" d="M384.8,458.4v-5c0-0.6-0.4-1-1-1h-3.5h-26h-3.5c-0.5,0-1,0.4-1,1v5"/>
				<path class="st9" d="M380.2,452.4c-2.1-2.9-7.1-5-13-5c-5.9,0-10.9,2.1-13,5"/>
				<path class="st9" d="M371.3,443.4c0,2.2-1.8,4-4,4c-2.2,0-4-1.8-4-4c0-2.2,1.8-4,4-4C369.5,439.4,371.3,441.2,371.3,443.4z"/>
				<path class="st9" d="M387.6,499.1C387.6,499.1,387.7,499.1,387.6,499.1c2.4-0.3,5-2.2,5-4.5v-15.3c0-2.4-3-4.5-5.5-4.5h-1.2
					h-0.1"/>
				<path class="st9" d="M385.8,471.8h1.3c4,0,8.5,3.2,8.5,7.5v15.3c0,4-4,7.1-7.7,7.4"/>
				<polygon class="st10" points="356.1,458.4 349.8,458.4 341.2,458.4 348.6,470.7 				"/>
			</g>
		</g>
	</g>
	<g id="shadows_6_">
		<path class="st11" d="M380.2,458.4c2.4,3.3,4.8,63.7,5.2,71.8c0.4,10.3-9.4,10.4-18.2,10.4c-15.3,0-23.5,2.2-22.5-12.4l-1,14.5
			l1.1,2.7l2.3,1.9c0,0,35.5,0,38.6,0c3.1,0,5.2-2.5,4.8-7.9s-5.8-81.1-5.8-81.1H380.2z"/>
		<polygon class="st7" points="349.8,454.8 384.8,454.8 384.7,453 383.8,452.4 350.8,452.4 349.4,453 		"/>
		
			<ellipse transform="matrix(0.6728 -0.7399 0.7399 0.6728 -207.2981 415.8143)" class="st7" cx="366.4" cy="442.3" rx="2.1" ry="1.5"/>
		<path class="st7" d="M358.2,452.6c2-2.6,10.3-6.5,21.3-1.1c0,0-5.3-4.4-12.2-4.1s-11.8,3.2-12.7,5L358.2,452.6z"/>
		<path class="st11" d="M390.2,498.2c1.6,0.2,4.2,0.7,5.4-5.8c0,0,1,8.8-7.7,9.7l-0.3-3L390.2,498.2z"/>
		<path class="st7" d="M351.5,533.1L351.5,533.1c-2-0.1-3.5-1.8-3.3-3.8l3.4-58.4c0.1-1.5,1.5-2.6,3.4-2.5c0,0,2.6,0.4,2.4,2.3
			l-2.1,59C355.2,531.7,353.5,533.2,351.5,533.1z"/>
		<path class="st7" d="M359.6,504.7L359.6,504.7c-0.8,0-1.5-0.7-1.5-1.6l0.9-25.3c0-0.6,0.6-1.1,1.5-1.1c0,0,1.1,0.1,1.1,1
			l-0.4,25.5C361.1,504.1,360.4,504.8,359.6,504.7z"/>
	</g>
	<g id="lines_1_">
		<path class="st9" d="M349.8,458.4h35l6,83.6c0.2,2.9-2.1,5.4-5,5.4h-37c-2.9,0-5.2-2.5-5-5.4l4.9-71.3"/>
		<path class="st9" d="M384.8,458.4v-5c0-0.6-0.4-1-1-1h-33c-0.6,0-1,0.4-1,1v5"/>
		<path class="st9" d="M380.2,452.4c-2.1-2.9-7.1-5-13-5c-5.9,0-10.9,2.1-13,5"/>
		<circle class="st9" cx="367.3" cy="443.4" r="4"/>
		<g>
			<path class="st9" d="M387.6,499.1c2.3-0.2,5-2.2,5-4.5v-15.3c0-2.4-3-4.5-5.5-4.5h-1.3"/>
			<path class="st9" d="M385.8,471.8h1.3c4,0,8.5,3.2,8.5,7.5v15.3c0,4-4,7.1-7.7,7.5"/>
		</g>
		<polygon class="st10" points="356.1,458.4 341.2,458.4 348.6,470.7 		"/>
		<line class="st5" x1="348.8" y1="547.4" x2="338.8" y2="547.4"/>
		<line class="st5" x1="336.8" y1="547.4" x2="332.8" y2="547.4"/>
		<line class="st5" x1="385.8" y1="547.4" x2="390.8" y2="547.4"/>
		<line class="st5" x1="394.8" y1="547.4" x2="392.8" y2="547.4"/>
		<line class="st5" x1="400.8" y1="547.4" x2="396.8" y2="547.4"/>
	</g>
</g>
<g id="cup_of_coffee">
	<g id="smoke">
		<linearGradient id="SVGID_1_" gradientUnits="userSpaceOnUse" x1="398.9874" y1="485.3954" x2="398.9874" y2="411.3474">
			<stop  offset="0" style="stop-color:#9F9F9F;stop-opacity:0"/>
			<stop  offset="1" style="stop-color:#9F9F9F"/>
		</linearGradient>
		<path class="st12" d="M405.9,488.9c5.2-5.2,17.2-20.5,5.8-22.1s-18.3-17.7-12.2-17.7c12.5,0,4.2-23.3-11-28
			c-12.3-3.8,32-15.3,25.2-4.9s-6.8,9.4-6.8,3.9s-16,2.5-3.2,9.1c12.8,6.6,15.5-0.2,13.5-18.4s-33.8,3-36.8,9.3s26.5,7.9,17.5,18.9
			c-8.5,10.4-6.3,24.5,6.1,28.3c14.5,4.5-10.3,19.6-16.8,21.3L405.9,488.9z"/>
	</g>
	<g id="color_2_">
		<g id="XMLID_2_">
			<g>
				<path class="st13" d="M451.2,493.7c4.8,0,11.6,3.4,11.6,15.1s-10.5,23.6-22.6,27c-5.7,1.6-8.9,4.8-10.2,6.4
					c2.2-3.2,4-6.8,5.4-10.6c18.6-3.5,22.6-18,22.6-24.1c0-3.5-0.8-8.9-6.8-8.9c-6.8,0-8.1,12.1-11.2,12.1c0.5-4.1,0.6-7.9,0.7-11.2
					C442.5,496.6,446.4,493.7,451.2,493.7z"/>
				<path class="st13" d="M440.6,491.8c0.1,1.9,0.1,4.7,0.1,8c-0.1,3.3-0.3,7.1-0.7,11.2c-0.7,6.7-2.1,14-4.6,20.8
					c-1.4,3.8-3.2,7.4-5.4,10.6c0,0,0,0,0,0c-0.4,0.5-0.6,0.9-0.7,1c0,0,0,0,0,0.1c-2.4,3.2-5.2,5.9-8.6,7.9c-0.5,0.3-1,0.4-1.5,0.4
					h-31.2c-0.5,0-1.1-0.1-1.5-0.4c-20.3-12.1-20.5-48.9-20.1-59.5c0.1-1.6,1.4-2.9,3-2.9h68.4C439.3,488.9,440.6,490.1,440.6,491.8
					z"/>
			</g>
			<g>
				<path class="st9" d="M430,542.3c2.2-3.2,4-6.8,5.4-10.6c2.5-6.8,3.9-14.1,4.6-20.8c0.5-4.1,0.6-7.9,0.7-11.2
					c0.1-3.3,0-6.1-0.1-8c-0.1-1.6-1.4-2.9-3-2.9h-68.4c-1.6,0-2.9,1.3-3,2.9c-0.4,10.6-0.2,47.4,20.1,59.5c0.5,0.3,1,0.4,1.5,0.4
					h31.2c0.5,0,1.1-0.1,1.5-0.4c3.4-2,6.2-4.7,8.6-7.9"/>
				<path class="st9" d="M429.2,543.3c0.2-0.3,0.5-0.7,0.7-1"/>
				<path class="st9" d="M440.7,499.7c1.8-3.1,5.7-6,10.5-6c4.8,0,11.6,3.4,11.6,15.1s-10.5,23.6-22.6,27c-5.7,1.6-8.9,4.8-10.2,6.4
					c0,0,0,0,0,0c-0.4,0.5-0.6,0.9-0.7,1c0,0,0,0,0,0.1"/>
				<path class="st9" d="M440,510.9c3.1,0,4.4-12.1,11.2-12.1c5.9,0,6.8,5.4,6.8,8.9c0,6.1-4,20.5-22.6,24.1"/>
			</g>
		</g>
	</g>
	<g id="shadows_1_">
		<path class="st14" d="M366.1,492.1h74.6c0,0-0.1-2.9-2-3.1c-1.9-0.2-70-0.2-70-0.2S366.1,489.8,366.1,492.1z"/>
		<path class="st9" d="M383.3,520.1C383.3,520.1,383.3,520.1,383.3,520.1"/>
		<line class="st9" x1="375.8" y1="522.6" x2="375.8" y2="522.6"/>
		<path class="st11" d="M371,530.1c6.4,14.3,20.2,14.6,32.5,14.6c15.9,0,34.1-19.5,30.1-55.7c0,0,6.1-0.9,7,1.9
			c1.9,22-5.2,54.3-20.9,60.6l-32.9,0.1C386.7,551.7,373,541.3,371,530.1z"/>
		<path class="st14" d="M372.8,490.5c0.1,6.4,0.5,12.9,1.1,19.5c0.5,5,2.3,18.1,8.7,19c10.1,1.3,7.3-18.8,7-23.3
			c-0.4-5.1-0.5-10.2-0.4-15.1"/>
		<path class="st15" d="M440.7,503c4.1-6.3,11.3-12.6,20.2-3.2c0,0-4.5-8.1-11.6-6s-8.6,5.8-8.6,5.8V503z"/>
		<path class="st11" d="M433.7,535.7c4.1-0.4,15.1-2.3,21.7-9.5c0,0-7.5,8.2-17,10.3c-4.3,1.3-7.9,5.1-7.9,5.1
			S433.2,537.5,433.7,535.7z"/>
	</g>
	<g id="lines_2_">
		<path class="st9" d="M420.6,551.3c20.3-12.1,20.5-48.9,20.1-59.5c-0.1-1.6-1.4-2.9-3-2.9h-68.4c-1.6,0-2.9,1.3-3,2.9
			c-0.4,10.6-0.2,47.4,20.1,59.5c0.5,0.3,1,0.4,1.5,0.4H419C419.6,551.7,420.1,551.6,420.6,551.3z"/>
		<path class="st9" d="M440.7,499.7c1.8-3.1,5.7-6,10.5-6s11.6,3.4,11.6,15.1s-10.5,23.6-22.6,27c-8,2.3-11,7.6-11,7.6"/>
		<path class="st9" d="M440,510.9c3.2,0,4.4-12.1,11.2-12.1c5.9,0,6.8,5.4,6.8,8.9c0,6.1-4,20.6-22.6,24.1"/>
		<line class="st5" x1="418.3" y1="551.7" x2="432.4" y2="551.7"/>
		<line class="st5" x1="434.4" y1="551.7" x2="440.4" y2="551.7"/>
		<line class="st5" x1="387" y1="551.7" x2="365.6" y2="551.7"/>
	</g>
</g>
<g id="beans_1_">
	<g id="beans">
		<g>
			<g id="XMLID_27_">
				<g>
					<path class="st16" d="M421.9,549.7c4.1,0.7,7.3,2.3,7.1,4.3c0,0.1,0,0.1,0,0.2c0,0.1,0,0.1,0,0.2c0,0,0,0.1,0,0.1
						c-0.6,1.8-3.8,2.2-7.8,1.5c-0.3,0-0.6-0.1-0.9-0.2c0,0,0-0.1,0-0.1c-0.2-1.4-2.7-2.5-6.1-2.8c-0.2-0.3-0.4-0.7-0.4-1.1
						c0,0,0-0.1,0-0.1c0-0.1,0-0.1,0-0.2C414.1,549.4,417.7,548.9,421.9,549.7z"/>
					<path class="st17" d="M428.9,554.5c-0.6,2.7-2.6,3.1-8.5,3.1c-0.2,0-0.5,0-0.7,0c0.2-0.4,0.3-0.9,0.4-1.4c0-0.1,0-0.2,0-0.3
						c0,0,0,0,0,0c0.3,0.1,0.6,0.1,0.9,0.2C425.1,556.7,428.3,556.3,428.9,554.5z"/>
					<path class="st16" d="M420.2,555.7c0,0,0,0.1,0,0.1c0,0.1,0,0.2,0,0.4c-0.1,0.5-0.6,0.9-1.2,1.3h0c-1.4,0.8-3.8,1.3-6.5,1.3
						c-4.1,0-7.5-1.3-7.7-2.8c0,0,0-0.1,0-0.2c0-1.7,3.5-3,7.8-3c0.4,0,0.8,0,1.2,0c0.1,0,0.3,0,0.4,0
						C417.5,553.2,420,554.3,420.2,555.7z"/>
					<path class="st17" d="M420.2,556.2c-0.1,0.5-0.2,1-0.4,1.4c-0.9,2.1-3.5,3.3-7.3,3.3c-5,0-7.6-1.7-7.7-4.8
						c0.2,1.6,3.6,2.8,7.7,2.8c2.7,0,5.1-0.5,6.5-1.3h0C419.6,557.1,420,556.7,420.2,556.2z"/>
				</g>
				<g>
				</g>
			</g>
		</g>
	</g>
	<g id="beans_line">
		<g>
			<ellipse class="st5" cx="412.5" cy="555.8" rx="7.8" ry="3"/>
			<path class="st5" d="M404.7,555.8c0.1,3.2,2.7,5,7.8,5c4.8,0,7.7-1.9,7.8-5.1"/>
			<g>
				<path class="st1" d="M406.2,555.5c0,0,0.2-0.1,0.5-0.3c0.2-0.1,0.4-0.2,0.6-0.2c0.2,0,0.5-0.1,0.8-0.1c0.6-0.1,1.3,0,2.1,0.1
					c0.7,0.1,1.5,0.2,2.3,0.4c0.8,0.2,1.5,0.3,2.2,0.4c0.3,0,0.7,0.1,1,0.1c0.3,0,0.6,0.1,0.9,0.1c0.3,0,0.5,0,0.8,0
					c0.2,0,0.4,0,0.6-0.1c0.3-0.1,0.5-0.1,0.5-0.1s-0.1,0.1-0.4,0.3c-0.1,0.1-0.3,0.2-0.6,0.3c-0.2,0.1-0.5,0.2-0.8,0.3
					c-0.3,0.1-0.6,0.2-1,0.2c-0.4,0.1-0.7,0.1-1.1,0.1c-0.8,0-1.6-0.1-2.4-0.3c-1.6-0.3-3-0.8-4.1-1.1c-0.3-0.1-0.5-0.1-0.8-0.2
					c-0.2,0-0.4,0-0.6-0.1C406.4,555.5,406.2,555.5,406.2,555.5z"/>
			</g>
		</g>
		<g>
			<path class="st5" d="M420.2,555.8C420.2,555.8,420.2,555.8,420.2,555.8c0.3,0.1,0.6,0.1,0.9,0.2c4,0.7,7.2,0.3,7.8-1.5
				c0,0,0-0.1,0-0.1c0-0.1,0-0.1,0-0.2c0-0.1,0-0.1,0-0.2c0.1-2-3.1-3.6-7.1-4.3c-4.2-0.7-7.8-0.3-8.2,1.8c0,0.1,0,0.1,0,0.2
				c0,0,0,0.1,0,0.1c0,0.4,0.1,0.8,0.4,1.1"/>
			<path class="st5" d="M429,554c0,0.1,0,0.1,0,0.2c0,0.1,0,0.1,0,0.2c0,0,0,0.1,0,0.1c-0.6,2.7-2.6,3.1-8.5,3.1c-0.2,0-0.5,0-0.7,0
				"/>
			<line class="st5" x1="418.9" y1="557.5" x2="418.9" y2="557.5"/>
			<path class="st5" d="M413.7,552.9c0-0.4,0-0.7,0-1.1c0,0,0-0.1,0-0.1c0-0.1,0-0.1,0-0.2c0-0.1,0-0.1,0-0.2"/>
			<g>
				<path class="st1" d="M415.3,551.5c0,0,0.2-0.1,0.5-0.2c0.2,0,0.4-0.1,0.7-0.1c0.2,0,0.5,0,0.9,0c0.6,0.1,1.3,0.2,2,0.4
					c0.7,0.2,1.4,0.5,2.2,0.8c0.7,0.3,1.4,0.6,2.1,0.8c0.3,0.1,0.6,0.2,1,0.3c0.3,0.1,0.6,0.2,0.9,0.2c0.3,0.1,0.5,0.1,0.8,0.1
					c0.2,0,0.4,0.1,0.6,0.1c0.3,0,0.6,0,0.6,0s-0.2,0.1-0.5,0.3c-0.2,0.1-0.4,0.2-0.6,0.2c-0.2,0.1-0.5,0.1-0.8,0.2
					c-0.3,0-0.7,0.1-1,0c-0.4,0-0.7-0.1-1.1-0.1c-0.8-0.2-1.5-0.4-2.3-0.7c-1.5-0.6-2.8-1.3-3.9-1.8c-0.3-0.1-0.5-0.2-0.7-0.3
					c-0.2-0.1-0.4-0.1-0.6-0.2C415.5,551.5,415.3,551.5,415.3,551.5z"/>
			</g>
		</g>
		<line class="st5" x1="420.4" y1="557.6" x2="429" y2="557.6"/>
		<line class="st5" x1="418.9" y1="560.8" x2="406.8" y2="560.8"/>
		<line class="st5" x1="405.3" y1="560.8" x2="404.3" y2="560.8"/>
	</g>
</g>
</svg>
