<?xml version="1.0" encoding="utf-8"?>
<!-- Generator: Adobe Illustrator 21.0.0, SVG Export Plug-In . SVG Version: 6.00 Build 0)  -->
<svg version="1.1" xmlns="http://www.w3.org/2000/svg" xmlns:xlink="http://www.w3.org/1999/xlink" x="0px" y="0px"
	 viewBox="0 0 800 600" style="enable-background:new 0 0 800 600;" xml:space="preserve">
<style type="text/css">
	.st0{fill:#FFE095;}
	.st1{fill:#F1F0ED;}
	.st2{fill:#64C0F2;}
	.st3{fill:#DCDCDC;}
	.st4{fill:#E27872;}
	.st5{fill:#FF817E;}
	.st6{fill:#B9F264;}
	.st7{fill:#A9A9A9;}
	.st8{fill:#777777;}
	.st9{fill:none;}
	.st10{opacity:0.15;}
	.st11{opacity:0.15;fill:#FFFFFF;}
	.st12{opacity:0.5;fill:#FFFFFF;}
	.st13{fill:none;stroke:#3C3C3C;stroke-width:1.5;stroke-linecap:round;stroke-linejoin:round;stroke-miterlimit:10;}
	.st14{fill:none;stroke:#3C3C3C;stroke-width:2;stroke-linecap:round;stroke-linejoin:round;stroke-miterlimit:10;}
	.st15{fill:none;stroke:#3C3C3C;stroke-width:0.75;stroke-linecap:round;stroke-linejoin:round;stroke-miterlimit:10;}
	.st16{fill:none;stroke:#3C3C3C;stroke-width:0.75;stroke-linejoin:round;stroke-miterlimit:10;}
	.st17{fill:none;stroke:#3C3C3C;stroke-linecap:round;stroke-linejoin:round;stroke-miterlimit:10;}
	.st18{fill:none;stroke:#3C3C3C;stroke-linejoin:round;stroke-miterlimit:10;}
	.st19{fill:#59AAD7;}
	.st20{opacity:0.1;}
	.st21{fill:none;stroke:#3C3C3C;stroke-width:1.5;stroke-linejoin:round;stroke-miterlimit:10;}
	.st22{fill:#E5F9FF;}
	.st23{fill:#9BD5E4;}
	.st24{fill:#FFFFFF;}
	.st25{fill:none;stroke:#9BD5E4;stroke-miterlimit:10;}
	.st26{fill:none;stroke:#A7E0F3;stroke-miterlimit:10;}
	.st27{fill:none;stroke:#3C3C3C;stroke-width:2;stroke-miterlimit:10;}
	.st28{fill:none;stroke:#3C3C3C;stroke-miterlimit:10;}
	.st29{fill:none;stroke:#3C3C3C;stroke-width:2;stroke-linejoin:round;stroke-miterlimit:10;}
	.st30{fill:none;stroke:#FFFFFF;stroke-miterlimit:10;}
	.st31{fill:none;stroke:#9BD5E4;stroke-width:2;stroke-miterlimit:10;}
	.st32{fill:none;stroke:#FFFFFF;stroke-width:2;stroke-miterlimit:10;}
</style>
<g id="folder">
	<g id="color_2_">
		<g id="XMLID_38_">
			<g>
				<path class="st0" d="M489,524.3c-1.3-0.1-2.4-0.4-3.5-1c-2.5-1.4-4.1-4-4.1-7h-10h-20h-10h-9.4h-10.1h-7.5v21c0,1.7,1.3,3,3,3
					h144c1.7,0,3-1.3,3-3v-21h-6h-10h-22h-20h-6.1h-2.9c0,4.4-3.6,8-8,8C489.2,524.3,489.1,524.3,489,524.3z M417.4,536.3
					c0-0.5,0.5-1,1-1s1,0.5,1,1c0,0.6-0.5,1-1,1S417.4,536.9,417.4,536.3z M431.9,529.7l3.8-10.3l20.7,7.5l-3.8,10.3L431.9,529.7z
					 M559.4,536.3c0-0.5,0.5-1,1-1s1,0.5,1,1c0,0.6-0.5,1-1,1S559.4,536.9,559.4,536.3z"/>
				<circle class="st1" cx="418.4" cy="536.3" r="1"/>
				<polygon class="st2" points="430.1,449.6 421.9,516.3 431.9,516.3 440,450.9 430.3,449.7 				"/>
				<polygon class="st2" points="431.3,440 430.1,449.6 430.3,449.7 440,450.9 441.2,441.2 				"/>
				<polygon class="st1" points="435.7,519.4 431.9,529.7 452.6,537.2 456.4,526.9 				"/>
				<polygon class="st3" points="441.4,448.9 441.4,516.3 451.4,516.3 451.4,485.3 451.4,467.3 451.4,456.3 451.4,448.9 				"/>
				<polygon class="st3" points="441.4,441.2 441.4,448.9 451.4,448.9 451.4,436.3 441.4,436.3 				"/>
				<rect x="451.4" y="485.3" class="st4" width="20" height="31"/>
				<path class="st5" d="M451.4,467.3v18h20v-18h-19.9H451.4z M456.4,476.3c0-2.8,2.2-5,5-5s5,2.2,5,5s-2.2,5-5,5
					S456.4,479.1,456.4,476.3z"/>
				<polygon class="st4" points="451.4,456.3 451.4,467.3 451.5,467.3 471.4,467.3 471.4,456.3 				"/>
				<circle class="st4" cx="461.4" cy="476.3" r="5"/>
				<path class="st6" d="M492.4,455.2l-6.9,68.1c1,0.6,2.2,0.9,3.5,1l6.9-68l0.1-0.8L492.4,455.2z"/>
				<path class="st6" d="M495.9,456.3l-6.9,68c0.1,0,0.3,0,0.4,0c4.4,0,8-3.6,8-8h2.9l6.1-59.7l-10.4-1.1L495.9,456.3z"/>
				<rect x="506.4" y="510.3" class="st7" width="20" height="6"/>
				<polygon class="st8" points="506.4,470.3 506.4,510.3 526.4,510.3 526.4,486.3 526.4,470.3 				"/>
				<polygon class="st7" points="506.4,456.6 506.4,470.3 526.4,470.3 526.4,460.3 526.4,456.3 526.4,450.3 506.4,450.3 				"/>
				<polygon class="st2" points="526.4,510.3 526.4,516.3 548.4,516.3 548.4,486.3 526.4,486.3 				"/>
				<rect x="526.4" y="456.3" class="st2" width="22" height="4"/>
				<polygon class="st5" points="548.4,486.3 548.4,516.3 558.4,516.3 558.4,446.3 548.4,446.3 548.4,456.3 548.4,460.3 				"/>
				<rect x="548.4" y="436.3" class="st5" width="10" height="10"/>
				<circle class="st1" cx="560.4" cy="536.3" r="1"/>
			</g>
			<g>
			</g>
		</g>
		
			<rect x="523.1" y="522.8" transform="matrix(0.9397 -0.342 0.342 0.9397 -148.4803 214.5475)" class="st1" width="22" height="11"/>
		<line class="st9" x1="527" y1="529.3" x2="540.2" y2="524.5"/>
		<line class="st9" x1="529" y1="531.8" x2="540.3" y2="527.7"/>
	</g>
	<g id="shadows_1_">
		<rect x="526.3" y="455.3" class="st10" width="5" height="60"/>
		<rect x="506.4" y="470.3" class="st11" width="20" height="2"/>
		<polygon class="st10" points="414.4,537.3 561.4,537.3 561.4,517 564.4,517 564.4,538.5 562,540.3 416.5,540.3 		"/>
		<path class="st12" d="M493.2,523.3c3.1-1,6.1-2.4,6.6-3.9h64.5v-3.1h-67C497.4,516.3,497.1,522.3,493.2,523.3z"/>
		<polygon class="st12" points="481.6,518.7 414.4,518.7 414.4,516.9 481.4,516.9 		"/>
	</g>
	<g id="lines_2_">
		<path class="st13" d="M414.4,516.3v21c0,1.7,1.3,3,3,3h144c1.7,0,3-1.3,3-3v-21h-67c0,4.4-3.6,8-8,8s-8-3.6-8-8H414.4z"/>
		<polyline class="st13" points="558.4,516.3 558.4,436.3 548.4,436.3 548.4,516.3 		"/>
		<polyline class="st13" points="548.4,456.3 526.4,456.3 526.4,516.3 		"/>
		<polyline class="st13" points="526.4,456.3 526.4,450.3 506.4,450.3 506.4,516.3 		"/>
		<polyline class="st14" points="471.4,516.3 471.4,456.3 451.4,456.3 451.4,516.3 		"/>
		<polyline class="st13" points="485.5,523.3 492.4,455.2 506.4,456.6 500.3,516.3 		"/>
		<polyline class="st14" points="451.4,456.3 451.4,436.3 441.4,436.3 441.4,516.3 		"/>
		<polyline class="st14" points="431.9,516.3 441.2,441.2 431.3,440 421.9,516.3 		"/>
		<line class="st15" x1="548.4" y1="486.3" x2="526.4" y2="486.3"/>
		<line class="st15" x1="548.4" y1="460.3" x2="526.4" y2="460.3"/>
		<line class="st16" x1="544.4" y1="470.3" x2="530.4" y2="470.3"/>
		<line class="st16" x1="543.4" y1="473.3" x2="531.4" y2="473.3"/>
		<line class="st16" x1="544.4" y1="476.3" x2="530.4" y2="476.3"/>
		<line class="st17" x1="558.4" y1="446.3" x2="548.4" y2="446.3"/>
		<line class="st15" x1="526.4" y1="470.3" x2="506.4" y2="470.3"/>
		<line class="st15" x1="526.4" y1="510.3" x2="506.4" y2="510.3"/>
		<line class="st15" x1="523.4" y1="453.3" x2="523.4" y2="455.3"/>
		<line class="st15" x1="523.4" y1="459.3" x2="523.4" y2="461.3"/>
		<line class="st15" x1="523.4" y1="465.3" x2="523.4" y2="467.3"/>
		<line class="st15" x1="509.4" y1="453.3" x2="509.4" y2="455.3"/>
		<line class="st15" x1="509.4" y1="459.3" x2="509.4" y2="461.3"/>
		<line class="st15" x1="509.4" y1="465.3" x2="509.4" y2="467.3"/>
		<line class="st15" x1="523.4" y1="512.3" x2="523.4" y2="514.3"/>
		<line class="st15" x1="509.4" y1="512.3" x2="509.4" y2="514.3"/>
		<line class="st15" x1="489" y1="524.4" x2="495.9" y2="456.3"/>
		<line class="st17" x1="471.5" y1="467.3" x2="451.5" y2="467.3"/>
		<line class="st17" x1="471.4" y1="485.3" x2="451.4" y2="485.3"/>
		<circle class="st17" cx="461.4" cy="476.3" r="5"/>
		<line class="st17" x1="451.4" y1="448.9" x2="441.4" y2="448.9"/>
		<line class="st17" x1="440.2" y1="450.9" x2="430.3" y2="449.6"/>
		<circle class="st15" cx="560.4" cy="536.3" r="1"/>
		<circle class="st17" cx="418.4" cy="536.3" r="1"/>
		<line class="st16" x1="522.4" y1="474.3" x2="510.4" y2="474.3"/>
		<line class="st16" x1="522.4" y1="506.3" x2="510.4" y2="506.3"/>
		
			<rect x="438.6" y="517.3" transform="matrix(0.342 -0.9397 0.9397 0.342 -204.2146 764.9724)" class="st18" width="11" height="22"/>
		<line class="st18" x1="451.2" y1="529.3" x2="438.1" y2="524.5"/>
		<line class="st18" x1="449.3" y1="531.8" x2="438" y2="527.7"/>
		<line class="st14" x1="417.4" y1="540.3" x2="405.4" y2="540.3"/>
		<line class="st13" x1="561.4" y1="540.3" x2="569.4" y2="540.3"/>
		<line class="st13" x1="573.4" y1="540.3" x2="575.4" y2="540.3"/>
		
			<rect x="523.1" y="522.8" transform="matrix(0.9397 -0.342 0.342 0.9397 -148.4803 214.5475)" class="st16" width="22" height="11"/>
		<line class="st16" x1="527" y1="529.3" x2="540.2" y2="524.5"/>
		<line class="st16" x1="529" y1="531.8" x2="540.3" y2="527.7"/>
	</g>
</g>
<g id="pencils">
	<g id="color_1_">
		<g id="XMLID_3_">
			<g>
				<path class="st6" d="M278.8,501.7V532c0,4.4-3.6,8-8,8h-6.2c-4.4,0-8-3.6-8-8v-30.3H278.8z"/>
				<polygon class="st1" points="278.8,498.6 278.8,501.7 256.6,501.7 256.6,498.6 259,498.6 263,498.6 265,498.6 269.9,498.6 
					271.8,498.6 276.7,498.6 				"/>
				<polygon class="st2" points="278.1,476.5 277.7,482.3 272.9,482 273.2,476.2 274.2,476.2 277.1,476.4 				"/>
				<polygon class="st19" points="272.5,486.9 272.8,483 272.9,482 277.7,482.3 277.3,488.2 272.5,487.9 				"/>
				<polygon class="st19" points="277.4,472.5 277.1,476.4 277.1,476.4 274.2,476.2 274.5,472.3 				"/>
				<polygon class="st2" points="277.3,488.2 276.7,498.6 271.8,498.6 272.5,487.9 				"/>
				
					<rect x="269.8" y="484" transform="matrix(6.612005e-02 -0.9978 0.9978 6.612005e-02 -230.0243 723.9703)" class="st19" width="3.9" height="1.8"/>
				<polygon class="st0" points="263.2,476.3 265,498.6 263,498.6 260.7,488.7 260.1,485.8 259.3,476.6 				"/>
				<path class="st3" d="M263.2,476.3l-3.9,0.3c-0.1-1.1,0.7-2,1.8-2.1C262.2,474.5,263.2,475.3,263.2,476.3z"/>
				<polygon class="st5" points="260.7,488.7 263,498.6 259,498.6 256.9,489.5 260.7,488.7 				"/>
				<polygon class="st5" points="260.1,485.8 260.7,488.7 260.7,488.7 256.9,489.5 255.2,481.9 259,481.1 				"/>
				<polygon class="st3" points="258.5,479.2 259,481.1 255.2,481.9 254.7,480 258.5,479.2 				"/>
				<polygon class="st5" points="257.7,475.3 258.5,479.2 258.5,479.2 254.7,480 253.8,476.2 				"/>
			</g>
			<g>
			</g>
		</g>
	</g>
	<g id="shadows">
		<path class="st12" d="M259,502v31.2c0,1.1,0.9,2,2,2l0,0c1.1,0,2-0.9,2-2V502H259z"/>
		<path class="st20" d="M258.2,537.9c3.5,0,6.4,0,10.8,0c7.7,0,6.9-3.5,6.3-35.8l3.5-0.3c0,0-0.1,32.6,0,33.5
			c0.1,0.9-1.8,4.5-4.9,4.6c-3,0.2-13.2,0.2-13.2,0.2L258.2,537.9z"/>
		<polygon class="st12" points="256.6,498.8 278.8,498.8 278.8,500.5 256.9,500.5 		"/>
	</g>
	<g id="lines_1_">
		<path class="st21" d="M270.8,540h-6.2c-4.4,0-8-3.6-8-8v-33.4h22.2V532C278.8,536.4,275.2,540,270.8,540z"/>
		<line class="st13" x1="252.6" y1="540" x2="283.5" y2="540"/>
		<g>
			<polyline class="st15" points="265,498.6 263.2,476.3 259.3,476.6 260.1,485.8 			"/>
			<path class="st15" d="M259.3,476.6l3.9-0.3c-0.1-1.1-1-1.9-2.1-1.8C260.1,474.6,259.3,475.6,259.3,476.6z"/>
		</g>
		<g>
			<polyline class="st15" points="259,498.6 253.9,476.2 257.7,475.3 263,498.6 			"/>
			<line class="st15" x1="254.7" y1="480" x2="258.5" y2="479.2"/>
			<line class="st15" x1="255.2" y1="481.9" x2="259" y2="481.1"/>
			<line class="st15" x1="256.9" y1="489.5" x2="260.7" y2="488.7"/>
		</g>
		<g>
			<polyline class="st15" points="276.7,498.6 278.1,476.5 273.2,476.2 271.8,498.6 			"/>
			<line class="st15" x1="277.7" y1="482.3" x2="272.9" y2="482"/>
			<line class="st15" x1="277.3" y1="488.2" x2="272.5" y2="487.9"/>
			<polyline class="st16" points="272.7,486.9 270.7,486.8 271,482.9 272.9,483 			"/>
			<line class="st15" x1="271" y1="482.9" x2="271" y2="481.9"/>
			<line class="st15" x1="270.7" y1="486.8" x2="269.9" y2="498.6"/>
			<polyline class="st15" points="274.2,476.2 274.5,472.3 277.4,472.5 277.1,476.4 			"/>
		</g>
		<line class="st18" x1="256.6" y1="501.7" x2="278.8" y2="501.7"/>
	</g>
</g>
<g id="macbook_blue">
	<g id="color">
		<g id="XMLID_37_">
			<g>
				<polygon class="st2" points="504,535 504,538 409,538 409,535 481.7,535 				"/>
				<path class="st19" d="M409,538h95c0,0-2.2,4-22,4h-95.7v-3C408.6,539,409,538.1,409,538z"/>
				<path class="st19" d="M380,532v-2h102v3c0,0.7-0.1,1.4-0.4,2H409h-29V532z"/>
				<path class="st2" d="M482,411v119H380h-90V411c0-3.3,2.7-6,6-6h180C479.3,405,482,407.7,482,411z M475,526V415H297v111H475z"/>
				<path class="st22" d="M392,436.5c0-3.3-2.7-6-6-6s-6,2.7-6,6c0,3.3,2.7,6,6,6S392,439.8,392,436.5z M475,415v111H297V415H475z
					 M471,426.5v-8H301v8H471z M463,519.5v-26h-35v26H463z M463,488.5v-26h-35v26H463z M423,519.5v-26h-35v26H423z M423,488.5v-26
					h-35v26H423z M383,519.5v-26h-35v26H383z M383,488.5v-26h-35v26H383z M343,519.5v-26h-35v26H343z M343,488.5v-26h-35v26H343z"/>
				<rect x="301" y="418.5" class="st23" width="170" height="8"/>
				<rect x="428" y="493.5" class="st24" width="35" height="26"/>
				<rect x="428" y="462.5" class="st24" width="35" height="26"/>
				<rect x="388" y="493.5" class="st24" width="35" height="26"/>
				<rect x="388" y="462.5" class="st24" width="35" height="26"/>
				<path class="st2" d="M409,535v3c0,0.1-0.5,1-22.7,1c-23.2,0-23.3-1-23.3-1v-3h17H409z"/>
				<path class="st23" d="M392,436.5h-12c0-3.3,2.7-6,6-6S392,433.2,392,436.5z"/>
				<path class="st23" d="M380,436.5h12c0,3.3-2.7,6-6,6S380,439.8,380,436.5z"/>
				<path class="st19" d="M386.3,539v3H290c-19.8,0-22-4-22-4h95C363,538,363.2,539,386.3,539z"/>
				<rect x="348" y="493.5" class="st24" width="35" height="26"/>
				<rect x="348" y="462.5" class="st24" width="35" height="26"/>
				<path class="st19" d="M380,532v3h-17h-72.6c-0.2-0.6-0.4-1.3-0.4-2v-3h90V532z"/>
				<polygon class="st2" points="363,535 363,538 268,538 268,535 290.4,535 				"/>
				<rect x="308" y="493.5" class="st24" width="35" height="26"/>
				<rect x="308" y="462.5" class="st24" width="35" height="26"/>
			</g>
			<g>
			</g>
		</g>
	</g>
	<g id="lines">
		<line class="st25" x1="301" y1="436.5" x2="471" y2="436.5"/>
		<line class="st26" x1="301" y1="456.5" x2="471" y2="456.5"/>
		<path class="st27" d="M290.4,535c-0.2-0.6-0.4-1.3-0.4-2V411c0-3.3,2.7-6,6-6h180c3.3,0,6,2.7,6,6V533c0,0.7-0.1,1.4-0.4,2"/>
		<rect x="297" y="415" class="st27" width="178" height="111"/>
		<line class="st28" x1="290" y1="530" x2="482" y2="530"/>
		<path class="st29" d="M290,542c-19.8,0-22-4-22-4v-3h236v3c0,0-2.2,4-22,4H290"/>
		<polyline class="st28" points="409,535 409,538 504,538 		"/>
		<polyline class="st28" points="268,538 363,538 363,535 		"/>
		<path class="st28" d="M363,538c0,0,0.1,1,23.3,1c23.2,0,22.7-1,22.7-1"/>
		<line class="st30" x1="380" y1="532" x2="392" y2="532"/>
		<line class="st31" x1="366" y1="446.5" x2="384" y2="446.5"/>
		<line class="st31" x1="360" y1="450.5" x2="412" y2="450.5"/>
		<line class="st31" x1="386" y1="446.5" x2="406" y2="446.5"/>
		<line class="st31" x1="463" y1="431.5" x2="467" y2="431.5"/>
		<line class="st32" x1="445" y1="422.5" x2="467" y2="422.5"/>
		<line class="st32" x1="305" y1="422.5" x2="319" y2="422.5"/>
		<line class="st31" x1="305" y1="431.5" x2="309" y2="431.5"/>
		<line class="st31" x1="311" y1="431.5" x2="315" y2="431.5"/>
		<line class="st31" x1="317" y1="431.5" x2="321" y2="431.5"/>
		<line class="st31" x1="323" y1="431.5" x2="327" y2="431.5"/>
	</g>
</g>
</svg>
